<svg xmlns="http://www.w3.org/2000/svg" viewBox="-21920 -20109.469 40 40"><defs><style>.a{fill:#fff;}</style></defs><g transform="translate(-21920 -20109.469)"><path class="a" d="M20,40a19.489,19.489,0,0,1-5.32-.719A20.352,20.352,0,0,1,9.9,37.263a19.679,19.679,0,0,1-4.037-3.121,19.941,19.941,0,0,1-5.14-8.815A19.271,19.271,0,0,1,0,20a19.477,19.477,0,0,1,.719-5.319A20.344,20.344,0,0,1,2.737,9.9,19.676,19.676,0,0,1,5.859,5.866,19.947,19.947,0,0,1,14.676.727,19.283,19.283,0,0,1,20,0a19.39,19.39,0,0,1,7.779,1.577A20.014,20.014,0,0,1,38.423,12.214a19.992,19.992,0,0,1,.858,13.1,20.344,20.344,0,0,1-2.018,4.779,19.676,19.676,0,0,1-3.122,4.036A19.9,19.9,0,0,1,30.1,37.247a20.352,20.352,0,0,1-4.78,2.018A18.886,18.886,0,0,1,20,40Zm9.642-28.243H10.68a.694.694,0,0,0-.482.18.646.646,0,0,0-.2.5v2.116c0,.106.041.163.123.163l9.961,5.678.082.041a.2.2,0,0,0,.123-.041l9.642-5.678a.35.35,0,0,1,.123-.041.412.412,0,0,0,.123-.041.147.147,0,0,0,.163-.163V12.426a.634.634,0,0,0-.2-.5.855.855,0,0,0-.5-.172ZM16.041,20.278a.169.169,0,0,0,.041-.123c0-.082-.025-.123-.082-.123l-5.72-3.276a.267.267,0,0,0-.2,0c-.057,0-.082.041-.082.123v8.6a.164.164,0,0,0,.123.163h.082c.057,0,.082-.016.082-.041ZM23,20.923c-.025-.082-.09-.09-.2-.041l-2.2,1.283a.784.784,0,0,1-.842,0l-1.92-1.087q-.123-.086-.2,0l-7.322,6.8a.247.247,0,0,0-.041.163c0,.025.025.065.082.123a1.234,1.234,0,0,0,.319.082H29.45a.225.225,0,0,0,.163-.082.362.362,0,0,0-.041-.2ZM30.2,16.6h-.163L24.6,19.845c-.057,0-.082.041-.082.123-.025.025-.016.065.041.123L30,25.972c.057.057.09.082.123.082H30.2c.082-.082.123-.131.123-.163V16.757c0-.049-.041-.106-.123-.155Zm0,0"/></g></svg>