<svg xmlns="http://www.w3.org/2000/svg" viewBox="-22092 -19670 30 30"><defs><style>.a{fill:#fff;}.b{fill:#1a2a31;}</style></defs><g transform="translate(-22092 -19670)"><path class="a" d="M15,30A15,15,0,1,0,0,15,14.987,14.987,0,0,0,15,30"/><path class="b" d="M11.765,22.276H8.853V12.924h2.912Zm-1.5-10.5h0a1.6,1.6,0,1,1,0-3.176,1.629,1.629,0,0,1,1.765,1.588A1.581,1.581,0,0,1,10.265,11.776ZM23.5,22.276H20.147V17.424c0-1.235-.529-2.118-1.676-2.118a1.759,1.759,0,0,0-1.588,1.147c0,.176,0,.529,0,.794v5.029H13.618V12.924h3.265v1.5a3.015,3.015,0,0,1,2.912-1.588c2.118,0,3.706,1.324,3.706,4.235Z" transform="translate(-1 -1.012)"/></g></svg>