<svg xmlns="http://www.w3.org/2000/svg" viewBox="-10609 -14989 30 30">
  <defs>
    <style>
      .cls-1 {
        fill: #8e8e8e;
      }
    </style>
  </defs>
  <g id="Group_7597" data-name="Group 7597" transform="translate(-10609 -14989)">
    <path id="Path_3033" data-name="Path 3033" class="cls-1" d="M15,0A14.914,14.914,0,0,0,0,15,14.914,14.914,0,0,0,15,30,14.914,14.914,0,0,0,30,15,14.914,14.914,0,0,0,15,0ZM10.4,12.443l.938-.937c.17-.17.256-.17.511-.17a1.211,1.211,0,0,1,.511.17l.682.682a.362.362,0,0,0,.6-.256V7.5a.627.627,0,0,1,.682-.682h1.364a.627.627,0,0,1,.682.682v4.517a.353.353,0,0,0,.6.256l.682-.682c.17-.17.256-.17.511-.17a1.211,1.211,0,0,1,.511.17l.938.938c.17.17.17.256.17.511a1.211,1.211,0,0,1-.17.511l-4.091,4.091a.626.626,0,0,1-.511.17,1.211,1.211,0,0,1-.511-.17L10.4,13.551c-.17-.17-.17-.256-.17-.511a1.232,1.232,0,0,1,.17-.6ZM23.864,22.5a.627.627,0,0,1-.682.682H6.818a.627.627,0,0,1-.682-.682V18.409a.627.627,0,0,1,.682-.682H8.182a.627.627,0,0,1,.682.682v1.7a.367.367,0,0,0,.341.341H20.8a.367.367,0,0,0,.341-.341v-1.7a.627.627,0,0,1,.682-.682h1.364a.627.627,0,0,1,.682.682Zm0,0"/>
  </g>
</svg>
