<svg xmlns="http://www.w3.org/2000/svg" viewBox="-16040 -16308 30 30">
  <defs>
    <style>
      .cls-1 {
        fill: #56575a;
      }
    </style>
  </defs>
  <g id="Group_7717" data-name="Group 7717" transform="translate(-16614 -16914)">
    <g id="Group_5899" data-name="Group 5899" transform="translate(574 606)">
      <path id="Path_2313" data-name="Path 2313" class="cls-1" d="M15,0A15,15,0,1,0,30,15,15,15,0,0,0,15,0Zm7.125,10.8L20.7,12.225l-2.9-2.9-1.1,1.1,2.9,2.9-7.113,7.112-2.9-2.9-1.1,1.1,2.9,2.9-.712.712-.012-.013a.6.6,0,0,1-.363.263l-2.7.6a.425.425,0,0,1-.125.013.6.6,0,0,1-.4-.163.58.58,0,0,1-.15-.525l.6-2.7a.589.589,0,0,1,.263-.362l-.012-.013L19.225,7.9a.446.446,0,0,1,.612,0l2.288,2.287a.423.423,0,0,1,0,.613Zm0,0"/>
    </g>
  </g>
</svg>
