<svg xmlns="http://www.w3.org/2000/svg" viewBox="-21992 -19670 30 30"><defs><style>.a{fill:#fff;}.b{fill:#1a2a31;}</style></defs><g transform="translate(-22398 -23424)"><circle class="a" cx="15" cy="15" r="15" transform="translate(406 3754)"/><path class="b" d="M8.4,16.2c-4.1,0-8.4-2-8.4-5.3C0,9.2,1.1,7.2,3,5.3,5.5,2.8,8.5,1.6,9.6,2.7A2.5,2.5,0,0,1,9.8,5c-.2.5.5.2.5.2,2-.9,3.8-.9,4.5,0a2.309,2.309,0,0,1,0,2c-.1.4,0,.4.3.5,1.1.4,2.4,1.2,2.4,2.7C17.4,13,13.8,16.2,8.4,16.2ZM7.6,7.1C4.3,7.5,1.8,9.5,2,11.7S5.1,15.4,8.4,15c3.3-.3,5.8-2.4,5.6-4.5S10.9,6.8,7.6,7.1Zm-1.3,7a2.463,2.463,0,0,1-1.6-3.5,3.625,3.625,0,0,1,4-1.8,2.5,2.5,0,0,1,1.8,3.5A3.585,3.585,0,0,1,6.3,14.1Zm.8-3a1.282,1.282,0,0,0-1.5.5.858.858,0,0,0,.3,1.3,1.282,1.282,0,0,0,1.5-.5A.764.764,0,0,0,7.1,11.1Zm1.3-.5c-.2-.1-.4,0-.6.2,0,.2,0,.4.2.5a.481.481,0,0,0,.6-.2C8.7,10.9,8.6,10.6,8.4,10.6ZM19.7,6.9h0a.791.791,0,1,1-1.5-.5h0a3.65,3.65,0,0,0-.8-3.7,4.032,4.032,0,0,0-3.6-1.2c-.3.2-.7-.1-.8-.5a.779.779,0,0,1,.6-.9h0a5.258,5.258,0,0,1,6.1,6.8Zm-2.6-.8a.632.632,0,0,1-1.2-.4h0a1.314,1.314,0,0,0-.3-1.2,1.286,1.286,0,0,0-1.2-.4h0a.618.618,0,0,1-.8-.5.618.618,0,0,1,.5-.8,2.4,2.4,0,0,1,2.5.8A2.523,2.523,0,0,1,17.1,6.1Z" transform="translate(411 3761.022)"/></g></svg>