<svg xmlns="http://www.w3.org/2000/svg" xmlns:xlink="http://www.w3.org/1999/xlink" viewBox="-21601 -20109 40 40"><defs><style>.a{fill:#fff;}.b{clip-path:url(#a);}.c{clip-path:url(#b);}</style><clipPath id="a"><rect class="a" width="40" height="40"/></clipPath><clipPath id="b"><rect width="40" height="40"/></clipPath></defs><g transform="translate(-22412 -22912)"><g class="b" transform="translate(811 2803)"><path class="a" d="M101.008,73.836A4.754,4.754,0,1,1,96.254,69.1a4.754,4.754,0,0,1,4.754,4.736Zm0,0" transform="translate(-76.237 -57.65)"/></g><g class="c" transform="translate(811 2803)"><path class="a" d="M20.017,0A19.942,19.942,0,1,0,40.033,19.942,19.974,19.974,0,0,0,20.017,0ZM20.1,6.7h.133A10.6,10.6,0,0,1,30.642,17.233c0,7-7.506,14.076-10.475,16.6-.2-.166-.417-.366-.651-.565l-.017-.017c-3.3-2.925-9.808-9.506-9.808-16.02A10.589,10.589,0,0,1,20.1,6.7Zm0,24.179" transform="translate(0 -0.033)"/></g></g></svg>