<svg xmlns="http://www.w3.org/2000/svg" viewBox="-10538.996 -14989 30 30">
  <defs>
    <style>
      .cls-1 {
        fill: #8e8e8e;
      }
    </style>
  </defs>
  <g id="Group_7593" data-name="Group 7593" transform="translate(-10538.996 -14989)">
    <path id="Path_3031" data-name="Path 3031" class="cls-1" d="M15,0A15,15,0,1,0,30,15,15,15,0,0,0,15,0ZM13.337,15a2.6,2.6,0,0,1-.162.888L17.362,17.9a2.627,2.627,0,1,1-.7,1.775,2.3,2.3,0,0,1,.038-.413l-4.45-2.137a2.591,2.591,0,0,1-1.55.512,2.637,2.637,0,0,1,0-5.275,2.591,2.591,0,0,1,1.55.513l4.462-2.138a2.3,2.3,0,0,1-.038-.413,2.637,2.637,0,1,1,2.637,2.637,2.6,2.6,0,0,1-1.937-.863l-4.187,2.013a2.935,2.935,0,0,1,.15.887Zm0,0"/>
  </g>
</svg>
