<svg xmlns="http://www.w3.org/2000/svg" viewBox="-22142 -19670 30 30"><defs><style>.a{fill:#fff;}</style></defs><path class="a" d="M15,0A15,15,0,1,0,30,15,15.008,15.008,0,0,0,15,0Zm8.651,11.639v.56a11.614,11.614,0,0,1-11.7,11.7,11.476,11.476,0,0,1-6.286-1.867,5.031,5.031,0,0,0,1,.062,8.557,8.557,0,0,0,5.1-1.743A4.238,4.238,0,0,1,7.9,17.49a3.03,3.03,0,0,0,.747.062,5.482,5.482,0,0,0,1.058-.124,4.14,4.14,0,0,1-3.3-4.046V13.32a3.8,3.8,0,0,0,1.867.5,4.055,4.055,0,0,1-1.8-3.423,3.917,3.917,0,0,1,.56-2.054A11.733,11.733,0,0,0,15.5,12.635a4.8,4.8,0,0,1-.124-.934,4.144,4.144,0,0,1,4.108-4.108A4.041,4.041,0,0,1,22.469,8.9a7.846,7.846,0,0,0,2.614-1,4.022,4.022,0,0,1-1.8,2.241,10.188,10.188,0,0,0,2.365-.622A7.16,7.16,0,0,1,23.651,11.639Z" transform="translate(-22142 -19670)"/></svg>