<svg xmlns="http://www.w3.org/2000/svg" xmlns:xlink="http://www.w3.org/1999/xlink" viewBox="-16134 -16308 30 30">
  <defs>
    <style>
      .cls-1 {
        fill: #56575a;
      }

      .cls-2 {
        fill: #c3c3c3;
      }

      .cls-3 {
        clip-path: url(#clip-path);
      }

      .cls-4 {
        fill: #fff;
      }
    </style>
    <clipPath id="clip-path">
      <rect id="Rectangle_5818" data-name="Rectangle 5818" width="18.094" height="20.759"/>
    </clipPath>
  </defs>
  <g id="Group_7716" data-name="Group 7716" transform="translate(-16614 -16914)">
    <circle id="Ellipse_154" data-name="Ellipse 154" class="cls-1" cx="15" cy="15" r="15" transform="translate(480 606)"/>
    <path id="Path_2314" data-name="Path 2314" class="cls-2" d="M215.991,210.471l.809.464a.47.47,0,0,0,.226.062.438.438,0,0,0,.39-.226.452.452,0,0,0-.164-.617l-.809-.464a.452.452,0,0,0-.617.164.444.444,0,0,0,.164.617Zm0,0" transform="translate(282.441 413.027)"/>
    <path id="Path_2315" data-name="Path 2315" class="cls-2" d="M180.891,190.171l.809.464a.47.47,0,0,0,.226.062.438.438,0,0,0,.39-.226.452.452,0,0,0-.164-.617l-.809-.464a.452.452,0,0,0-.617.164.443.443,0,0,0,.164.617Zm0,0" transform="translate(315.557 432.18)"/>
    <path id="Path_2316" data-name="Path 2316" class="cls-2" d="M251.054,230.671l.809.464a.47.47,0,0,0,.226.062.438.438,0,0,0,.39-.226.452.452,0,0,0-.164-.617l-.809-.464a.451.451,0,0,0-.452.781Zm0,0" transform="translate(249.357 393.971)"/>
    <path id="Path_2317" data-name="Path 2317" class="cls-2" d="M108.68,190.7a.415.415,0,0,0,.226-.062l.809-.464a.451.451,0,0,0-.453-.781l-.809.464a.452.452,0,0,0-.164.617.438.438,0,0,0,.39.226Zm0,0" transform="translate(383.893 432.18)"/>
    <path id="Path_2318" data-name="Path 2318" class="cls-2" d="M38.48,231.2a.415.415,0,0,0,.226-.062l.809-.464a.451.451,0,1,0-.453-.781l-.809.464a.452.452,0,0,0-.164.617.438.438,0,0,0,.39.226Zm0,0" transform="translate(450.121 393.971)"/>
    <path id="Path_2319" data-name="Path 2319" class="cls-2" d="M73.58,211a.415.415,0,0,0,.226-.062l.809-.464a.451.451,0,0,0-.453-.781l-.809.464a.452.452,0,0,0,.226.843Zm0,0" transform="translate(417.008 413.027)"/>
    <path id="Path_2320" data-name="Path 2320" class="cls-2" d="M151.5,42.686a.452.452,0,0,0,.9,0v-.933a.452.452,0,1,0-.9,0Zm0,0" transform="translate(343.07 571.836)"/>
    <path id="Path_2321" data-name="Path 2321" class="cls-2" d="M151.952,81.8a.454.454,0,0,0-.452.453v.933a.452.452,0,1,0,.9,0v-.933a.45.45,0,0,0-.452-.453Zm0,0" transform="translate(343.07 533.627)"/>
    <path id="Path_2322" data-name="Path 2322" class="cls-2" d="M151.952,122.3a.454.454,0,0,0-.452.453v.933a.452.452,0,1,0,.9,0v-.933a.45.45,0,0,0-.452-.453Zm0,0" transform="translate(343.07 495.418)"/>
    <g id="Group_5900" data-name="Group 5900" class="cls-3" transform="translate(486 610.801)">
      <path id="Path_2323" data-name="Path 2323" class="cls-4" d="M17.823,5.059,9.248.109a.461.461,0,0,0-.453,0L.226,5.059A.449.449,0,0,0,0,5.449v9.9a.442.442,0,0,0,.226.39L8.8,20.687a.442.442,0,0,0,.453,0l8.569-4.949a.449.449,0,0,0,.226-.39v-9.9a.432.432,0,0,0-.221-.39Zm-.679,9.361-.294-.17a.451.451,0,1,0-.453.781l.419.243L9.474,19.51V10.975h.017a.438.438,0,0,0,.39-.226.452.452,0,0,0,.04-.351l7.217-4.163V14.42ZM1.816,14.414A.452.452,0,0,0,1.2,14.25l-.294.17V6.235L8.122,10.4a.448.448,0,0,0,.43.577h.017V19.51L1.233,15.274l.419-.243a.449.449,0,0,0,.164-.617ZM9.022,1.931a.454.454,0,0,0,.453-.453V1.286l7.212,4.163L9.463,9.618a.454.454,0,0,0-.441-.362.449.449,0,0,0-.441.362L1.358,5.449,8.569,1.286v.192a.454.454,0,0,0,.453.453Zm0,0" transform="translate(0 -0.047)"/>
    </g>
  </g>
</svg>
