<svg xmlns="http://www.w3.org/2000/svg" viewBox="-22241 -20107 40 40"><defs><style>.a{fill:#fff;}</style></defs><path class="a" d="M20,0A20,20,0,1,0,40,20,20,20,0,0,0,20,0ZM30.557,29.18l-1.6,1.6a3,3,0,0,1-1.152.469A18.875,18.875,0,0,1,8.75,12.148a2.963,2.963,0,0,1,.469-1.094l1.6-1.6a2.709,2.709,0,0,1,2.5-.6l.342.117a3.141,3.141,0,0,1,1.826,1.934l.8,2.959a2.9,2.9,0,0,1-.664,2.529l-1.064,1.064a11.373,11.373,0,0,0,7.988,7.988l1.064-1.064a2.9,2.9,0,0,1,2.529-.664l2.959.811a3.167,3.167,0,0,1,1.934,1.826l.117.342a2.652,2.652,0,0,1-.6,2.48Zm0,0" transform="translate(-22241 -20107)"/></svg>