<svg xmlns="http://www.w3.org/2000/svg" viewBox="-22192 -19670 30 30"><defs><style>.a{fill:#fff;}</style></defs><path class="a" d="M13.2,6.846a2.24,2.24,0,0,0-1.369-.436,2.42,2.42,0,0,0-1.743.809,3.293,3.293,0,0,0-.56,1.867,5.693,5.693,0,0,0,.809,2.8,4.3,4.3,0,0,0,1,1.12,2.35,2.35,0,0,0,1.432.5,2.3,2.3,0,0,0,1.68-.685,2.86,2.86,0,0,0,.436-1,4.131,4.131,0,0,0,.062-.809,6.629,6.629,0,0,0-.747-2.988A2.682,2.682,0,0,0,13.2,6.846ZM15,0A15,15,0,1,0,30,15,15.008,15.008,0,0,0,15,0Zm.934,6.846a6.615,6.615,0,0,1,.56.685,6.343,6.343,0,0,1,.5.934,4.013,4.013,0,0,1,.187,1.245,3.56,3.56,0,0,1-.622,2.116,3.262,3.262,0,0,1-.622.685,7.46,7.46,0,0,0-.747.685,3.558,3.558,0,0,0-.436.5,1.305,1.305,0,0,0-.249.685.722.722,0,0,0,.249.622,2.707,2.707,0,0,0,.373.436L16,16.12a7.794,7.794,0,0,1,1.432,1.432,3.825,3.825,0,0,1,.622,2.054,4.2,4.2,0,0,1-1.618,3.174,7.97,7.97,0,0,1-4.917,1.494,6.155,6.155,0,0,1-4.046-1.12A3.1,3.1,0,0,1,6.1,20.726a3.292,3.292,0,0,1,.436-1.556,4.01,4.01,0,0,1,1.556-1.494,9.346,9.346,0,0,1,2.614-.934,17.835,17.835,0,0,1,2.241-.187,5.192,5.192,0,0,1-.5-.747,1.625,1.625,0,0,1-.124-1.494c.062-.124.124-.311.187-.436a3.828,3.828,0,0,1-.809.062A3.894,3.894,0,0,1,8.589,12.7a3.62,3.62,0,0,1-1.12-2.676,4.436,4.436,0,0,1,1.618-3.3,6.084,6.084,0,0,1,2.3-1.12,14.617,14.617,0,0,1,2.178-.249h5.166l-1.556.871H15.622C15.56,6.535,15.747,6.66,15.934,6.846Zm7.531,8.838V18.61H22.033V15.685H19.108V14.253h2.925V11.328h1.432v2.925H26.39v1.432ZM13.071,17.427a8.473,8.473,0,0,0-1,.062,7.6,7.6,0,0,0-1.618.373,2.894,2.894,0,0,1-.56.187,4.642,4.642,0,0,0-.747.436,2.491,2.491,0,0,0-.622.747,2.149,2.149,0,0,0-.311,1.12,2.606,2.606,0,0,0,1.245,2.178,5.335,5.335,0,0,0,3.174.871,4.674,4.674,0,0,0,2.8-.747,2.331,2.331,0,0,0,.934-1.929,2.2,2.2,0,0,0-.622-1.618,15.062,15.062,0,0,0-2.116-1.618A1.723,1.723,0,0,0,13.071,17.427Z" transform="translate(-22192 -19670)"/></svg>