<svg xmlns="http://www.w3.org/2000/svg" xmlns:xlink="http://www.w3.org/1999/xlink" viewBox="-21682 -19945.336 81.281 71.902"><defs><style>.a{clip-path:url(#a);}.b{fill:#07a;}</style><clipPath id="a"><rect width="81.281" height="71.903"/></clipPath></defs><g transform="translate(-21682 -19945.336)"><g class="a"><path class="b" d="M78.478,10.394H72.77V3.978a2.92,2.92,0,0,0-2.324-2.93A38.039,38.039,0,0,0,58,1.457c-7.451,1.483-13.4,5.08-17.4,10.568-4.033-5.451-9.981-9.085-17.4-10.568a39.475,39.475,0,0,0-12.476-.408,2.891,2.891,0,0,0-2.324,2.93v6.378H2.734A2.866,2.866,0,0,0,0,13.323V69.058a2.953,2.953,0,0,0,1.162,2.41,2.474,2.474,0,0,0,2.461.371c.205-.074,20.611-7.639,35.855-.111a2.426,2.426,0,0,0,2.256,0c15.176-7.528,35.65.037,35.855.111a2.576,2.576,0,0,0,2.461-.408,3.051,3.051,0,0,0,1.162-2.41v-55.7a2.832,2.832,0,0,0-2.734-2.93ZM5.435,65.09V16.29H8.408V55.671A2.993,2.993,0,0,0,9.365,57.9a2.689,2.689,0,0,0,2.188.7c.137-.037,12-1.78,20.645,4.635-10.664-1.965-21.329.334-26.763,1.854Zm32.437-4.524a28.194,28.194,0,0,0-14.7-7.416,40.169,40.169,0,0,0-7.588-.742c-.615,0-1.2,0-1.743.037V6.685c5.23-.26,17.979.334,24.029,11.458Zm5.469-42.422C49.357,7.093,62.106,6.463,67.37,6.685v45.76a38.789,38.789,0,0,0-9.331.7,28.6,28.6,0,0,0-14.7,7.416Zm5.674,45.092c8.648-6.452,20.508-4.672,20.645-4.635a2.662,2.662,0,0,0,2.188-.667,2.993,2.993,0,0,0,.957-2.225V16.29h2.974v48.8c-5.435-1.52-16.1-3.819-26.763-1.854Zm0,0" transform="translate(0 -0.456)"/></g></g></svg>