<svg xmlns="http://www.w3.org/2000/svg" viewBox="-21526 -22892 18 18"><defs><style>.a{fill:#56575a;}</style></defs><g transform="translate(-21526 -22892)"><path class="a" d="M9,0a9,9,0,1,0,9,9A9,9,0,0,0,9,0Zm4.75,13.131-.721.721a1.349,1.349,0,0,1-.519.211,8.494,8.494,0,0,1-8.574-8.6,1.333,1.333,0,0,1,.211-.492l.721-.721a1.219,1.219,0,0,1,1.125-.268l.154.053a1.414,1.414,0,0,1,.822.87L7.33,6.24a1.307,1.307,0,0,1-.3,1.138l-.479.479a5.118,5.118,0,0,0,3.595,3.595l.479-.479a1.307,1.307,0,0,1,1.138-.3l1.332.365a1.425,1.425,0,0,1,.87.822l.053.154a1.193,1.193,0,0,1-.268,1.116Zm0,0"/></g></svg>