<svg xmlns="http://www.w3.org/2000/svg" viewBox="-22042 -19670 30 30"><defs><style>.a{fill:#fff;}</style></defs><path class="a" d="M13.008,17.49l5.228-2.739-5.228-2.739ZM15,0A15,15,0,1,0,30,15,15.008,15.008,0,0,0,15,0Zm9.647,15.747a29.934,29.934,0,0,1-.187,3.112,4.473,4.473,0,0,1-.747,1.929,2.954,2.954,0,0,1-1.929.809c-2.739.187-6.784.187-6.784.187s-5.041,0-6.6-.187a3.242,3.242,0,0,1-2.116-.809,4.218,4.218,0,0,1-.747-1.929,29.934,29.934,0,0,1-.187-3.112V14.253a29.934,29.934,0,0,1,.187-3.112,4.473,4.473,0,0,1,.747-1.929A2.954,2.954,0,0,1,8.216,8.4C10.954,8.216,15,8.216,15,8.216h0s4.046,0,6.784.187a2.954,2.954,0,0,1,1.929.809,4.218,4.218,0,0,1,.747,1.929,29.934,29.934,0,0,1,.187,3.112Z" transform="translate(-22042 -19670)"/></svg>